<?xml version="1.0" encoding="utf-8"?>
<!-- Generator: Adobe Illustrator 16.0.0, SVG Export Plug-In . SVG Version: 6.00 Build 0)  -->
<!DOCTYPE svg PUBLIC "-//W3C//DTD SVG 1.1//EN" "http://www.w3.org/Graphics/SVG/1.1/DTD/svg11.dtd">
<svg version="1.1" id="Capa_1" xmlns="http://www.w3.org/2000/svg" xmlns:xlink="http://www.w3.org/1999/xlink" x="0px" y="0px"
	 width="292px" height="292px" viewBox="82.5 0 292 292" enable-background="new 82.5 0 292 292" xml:space="preserve">
<g>
	<g>
		<g>
			<path fill="#707070" d="M82.504,144.894c-0.611,80.631,64.259,146.491,144.89,147.102c80.63,0.61,146.491-64.259,147.102-144.89
				c0.519-80.595-64.297-146.4-144.89-147.102C148.975-0.606,83.115,64.264,82.504,144.894z M364.763,147.032
				c-0.57,75.256-62.039,135.801-137.295,135.23c-75.256-0.57-135.801-62.039-135.23-137.295
				c0.656-75.22,62.074-135.714,137.295-135.23C304.788,10.308,365.333,71.777,364.763,147.032z"/>
			<path fill="#707070" d="M186.868,66.531l78.549,79.749l-79.748,78.549c-1.836,1.872-1.858,4.862-0.051,6.762
				c1.852,1.947,4.933,2.024,6.88,0.172l83.215-81.964c0.92-0.906,1.442-2.14,1.452-3.43c0.01-1.291-0.494-2.532-1.4-3.452
				l-81.963-83.215c-0.039-0.042-0.079-0.081-0.118-0.12c-1.919-1.882-5-1.853-6.882,0.067S184.949,64.648,186.868,66.531z"/>
		</g>
	</g>
</g>
</svg>
